<svg xmlns="http://www.w3.org/2000/svg" xmlns:xlink="http://www.w3.org/1999/xlink" viewBox="0 0 166.09 241.48">
  <defs>
    <style>
      .a {
        fill: url(#a);
      }

      .b {
        fill: #c2e5f3;
      }

      .c {
        fill: url(#b);
      }

      .d {
        fill: url(#c);
      }
    </style>
    <radialGradient id="a" cx="54.55" cy="188.24" r="53.24" gradientUnits="userSpaceOnUse">
      <stop offset="0" stop-color="#c2e5f3"/>
      <stop offset="1" stop-color="#6dd0e8"/>
    </radialGradient>
    <radialGradient id="b" cx="128.46" cy="95.31" r="37.63" xlink:href="#a"/>
    <radialGradient id="c" cx="32.25" cy="32.25" r="32.25" xlink:href="#a"/>
  </defs>
  <g>
    <g>
      <circle class="a" cx="54.55" cy="188.24" r="53.24"/>
      <path class="b" d="M337.19,395.44a74.41,74.41,0,0,0,18.92-3.65,50.5,50.5,0,0,0,15.94-9l.91-.69.84-.78,1.69-1.54c1-1.12,2.1-2.2,3.06-3.4a43.86,43.86,0,0,0,2.83-3.62c.81-1.3,1.72-2.57,2.48-3.92A70.58,70.58,0,0,0,391,351h.4a49.37,49.37,0,0,1-4.66,19.24c-.68,1.52-1.52,2.95-2.34,4.4a48.23,48.23,0,0,1-2.84,4.1c-1,1.36-2.15,2.55-3.24,3.8l-1.8,1.73-.91.87-1,.78-2,1.56c-.68.48-1.38.92-2.07,1.39-1.36,1-2.88,1.68-4.32,2.51a52.77,52.77,0,0,1-9.35,3.47,50.67,50.67,0,0,1-19.77,1Z" transform="translate(-290.41 -161.36)"/>
      <path class="b" d="M313.14,346.62c1.38-1.83,2.21-5.37,3.1-7a36.65,36.65,0,0,1,10.47-12.27,26.9,26.9,0,0,1,7.47-3.76c2.73-.86,5.79-.7,8.17-2.45a4.09,4.09,0,0,0,1.36-1.56,4.25,4.25,0,0,0-.89-4.22c-5.31-6.7-15.67-4.44-22.35-1.4a26.56,26.56,0,0,0-12.68,12.3,26.93,26.93,0,0,0-3.13,12.78c.15,3.26,2.61,9.9,7.09,8.63A2.78,2.78,0,0,0,313.14,346.62Z" transform="translate(-290.41 -161.36)"/>
    </g>
    <ellipse class="b" cx="335.93" cy="331.21" rx="5.12" ry="2.99" transform="translate(-425.59 145.38) rotate(-41.62)"/>
    <g>
      <circle class="c" cx="128.46" cy="95.31" r="37.63"/>
      <path class="b" d="M418.86,287.49a81.24,81.24,0,0,0,10.67-4.71,43.69,43.69,0,0,0,4.68-3,28.9,28.9,0,0,0,4.14-3.48,32.59,32.59,0,0,0,6.29-8.76,72,72,0,0,0,4-10.91h.3a37,37,0,0,1-2.06,11.73,29.13,29.13,0,0,1-2.65,5.37,28.21,28.21,0,0,1-3.74,4.69,31.89,31.89,0,0,1-10,6.49,38.54,38.54,0,0,1-11.58,2.84Z" transform="translate(-290.41 -161.36)"/>
      <path class="b" d="M404.64,255.72c1.05-1.39,1.68-4.07,2.35-5.28a27.71,27.71,0,0,1,7.94-9.3,20.14,20.14,0,0,1,5.67-2.85c2.06-.65,4.39-.53,6.18-1.86a3.11,3.11,0,0,0,1-1.18,3.23,3.23,0,0,0-.68-3.2c-4-5.08-11.88-3.37-16.94-1.06a20.13,20.13,0,0,0-9.61,9.32,20.4,20.4,0,0,0-2.38,9.69c.12,2.47,2,7.5,5.38,6.54A2.12,2.12,0,0,0,404.64,255.72Z" transform="translate(-290.41 -161.36)"/>
      <ellipse class="b" cx="421.92" cy="244.03" rx="3.88" ry="2.27" transform="translate(-345.99 180.48) rotate(-41.62)"/>
    </g>
    <g>
      <circle class="d" cx="32.25" cy="32.25" r="32.25"/>
      <path class="b" d="M322.66,218.93a44.85,44.85,0,0,0,7.58-2.92,27.7,27.7,0,0,0,6.34-4.37c.49-.4.91-.88,1.37-1.32s.85-1,1.25-1.45a28.61,28.61,0,0,0,2.25-3.16,41.81,41.81,0,0,0,3.41-7.36h.2a22.91,22.91,0,0,1-7.13,14.75,22.58,22.58,0,0,1-7.11,4.36,24.78,24.78,0,0,1-8.16,1.66Z" transform="translate(-290.41 -161.36)"/>
      <path class="b" d="M305.37,192.91c.78-1,1.24-3,1.73-3.88a20.41,20.41,0,0,1,5.83-6.83,14.86,14.86,0,0,1,4.17-2.1c1.51-.48,3.22-.39,4.54-1.36a2.27,2.27,0,0,0,.76-.87,2.34,2.34,0,0,0-.5-2.35c-2.95-3.73-8.72-2.47-12.44-.78a14.76,14.76,0,0,0-7.06,6.85,15,15,0,0,0-1.75,7.12c.09,1.82,1.46,5.51,4,4.8A1.5,1.5,0,0,0,305.37,192.91Z" transform="translate(-290.41 -161.36)"/>
      <ellipse class="b" cx="317.01" cy="185.27" rx="1.42" ry="1.67" transform="translate(-333.44 95.96) rotate(-41.62)"/>
    </g>
  </g>
</svg>
