<svg xmlns="http://www.w3.org/2000/svg" width="574" height="221.389" viewBox="0 0 574 221.389">
  <g id="Group_215" data-name="Group 215" transform="translate(-258 -491.611)">
    <text id="Your_shopping_cart_is_empty" data-name="Your shopping cart is empty" transform="translate(258 700)" fill="#bbb" font-size="44" font-family="OpenSans, Open Sans"><tspan x="0" y="0">Your shopping cart is empty</tspan></text>
    <path id="Icon_awesome-shopping-cart" data-name="Icon awesome-shopping-cart" d="M109.859,62.68l9.834-43.268a4.993,4.993,0,0,0-4.868-6.1H33.118L31.212,3.992A4.992,4.992,0,0,0,26.32,0H4.992A4.992,4.992,0,0,0,0,4.992V8.321a4.992,4.992,0,0,0,4.992,4.992H19.529L34.142,84.754a11.65,11.65,0,1,0,13.947,1.782H91.7a11.646,11.646,0,1,0,13.23-2.164l1.148-5.05a4.993,4.993,0,0,0-4.868-6.1H45.372l-1.361-6.657h60.98A4.992,4.992,0,0,0,109.859,62.68Z" transform="translate(485 491.611)" fill="#bbb"/>
  </g>
</svg>
